<svg clip-rule="evenodd" fill-rule="evenodd" stroke-linejoin="round" stroke-miterlimit="2" viewBox="0 0 560 400" xmlns="http://www.w3.org/2000/svg"><path d="m106.1926208 155h36.4128408v9.9908248h-36.4128408z" fill="#e71d2d" stroke-width=".825688"/><g fill="#231f20" fill-rule="nonzero" transform="matrix(.825688 0 0 .825688 40.8807 155)"><path d="m42.3 106.5c-2.4 1.3-6.6 2.5-12.2 2.5-18.1 0-30.1-13.4-30.1-38.4 0-22.8 12.6-39.9 32.8-39.9 4.5 0 7.4 1.1 9.5 2.2v13.3c-1.6-.7-5.5-1.7-9.2-1.7-10.9 0-16.5 11.8-16.5 25.8 0 15.6 6.3 25.1 16.5 25.1 3.1 0 6.7-.6 9.1-1.8v12.9z"/><path d="m106.8 95.6v-26.9c-6.5.1-18.3 1.9-18.3 15.2 0 8.6 4.6 11.7 8.2 11.7zm16.4-6c0 5.9.4 13.4 1.2 18.5h-32.7c-10.9 0-19.1-9-19.1-22.4 0-19.6 16.5-27.8 33.8-28v-1.3c0-7.9-3.1-13.5-11.4-13.5-5.4 0-11.7 1.6-15.8 4.2v-11.5c3.7-2.4 10.1-5.4 19.4-5.4 19.6 0 24.6 12.7 24.6 29z"/><path d="m196.6 95.6h-9.7c-7 0-11.1-10.6-11.1-25.8 0-13.6 3-25.6 11.5-25.6 4.9 0 8.3 5.4 9.1 11.5.2 1.5.2 3.2.2 4.7zm16.6-6v-81.8h-16.6v30.6h-.3c-2.4-5.3-7-8.3-13.3-8.3-12.3 0-23.8 12.8-23.8 39.5 0 22.9 8.3 38.5 23 38.5h32.2c-.8-5-1.2-12.6-1.2-18.5"/><path d="m286.1 62.5c.1-12.2-3.9-19.5-9.8-19.5-7.3 0-10.5 10.5-10.8 19.5zm-20.7 11.9c.2 17 8.1 21.6 17 21.6 5.6 0 11.4-1.2 14.8-2.7v12c-4.8 2.2-10.9 3.6-17.9 3.6-19.6 0-30.2-14.2-30.2-37.8 0-25.2 12.1-40.5 28.3-40.5 16 0 24.1 14.5 24.1 34.9 0 4.3-.2 6.8-.4 8.9z"/><path d="m354.4 44.7v63.3h-16.7v-54.6c0-8.6-.4-15.3-.7-22.1h32.9c12.7 0 20.3 9.2 20.3 26.9v49.9h-16.7v-48.3c0-7.6-1.6-15.1-8.9-15.1z"/><path d="m467.8 106.5c-2.4 1.3-6.6 2.5-12.2 2.5-18.1 0-30.1-13.4-30.1-38.4 0-22.8 12.6-39.9 32.8-39.9 4.5 0 7.4 1.1 9.5 2.2v13.3c-1.7-.7-5.5-1.7-9.2-1.7-10.9 0-16.4 11.8-16.4 25.8 0 15.6 6.3 25.1 16.5 25.1 3.1 0 6.7-.6 9.2-1.8v12.9z"/><path d="m513.7 62.5c.3-8.9 3.6-19.5 10.8-19.5 5.9 0 9.9 7.3 9.8 19.5zm36.1 3c0-20.4-8.1-34.9-24.1-34.9-16.3 0-28.3 15.3-28.3 40.5 0 23.6 10.5 37.8 30.2 37.8 7 0 13.1-1.3 17.9-3.6v-12c-3.4 1.5-9.3 2.7-14.8 2.7-8.9 0-16.8-4.6-17-21.6h35.8c.1-2.1.3-4.6.3-8.9"/><path d="m557.8 11.3c0-5.9 4.8-10.7 10.7-10.7s10.7 4.8 10.7 10.7-4.8 10.7-10.7 10.7-10.7-4.8-10.7-10.7m18.8 0c0-5-3.6-8.6-8.1-8.6s-8.1 3.6-8.1 8.6 3.6 8.6 8.1 8.6c4.5.1 8.1-3.5 8.1-8.6m-12.2-6.1h4.5c2.9 0 4.5 1 4.5 3.6 0 2.1-1.2 3.1-3.2 3.3l3.3 5.3h-2.3l-3.1-5.2h-1.4v5.2h-2.2v-12.2zm2.2 5.2h2c1.3 0 2.5-.2 2.5-1.8 0-1.4-1.3-1.7-2.5-1.7h-2z"/></g></svg>